<svg width="80" height="51" viewBox="0 0 80 51" fill="none" xmlns="http://www.w3.org/2000/svg">
<path fill-rule="evenodd" clip-rule="evenodd" d="M0.99494 0.297312C0.761841 0.453499 0.442586 0.771122 0.285596 1.00303L0 1.42461V25.503V49.5813L0.285596 50.0029C1.18609 51.3324 2.83285 51.3324 3.73335 50.0029L4.01894 49.5813V36.4505V23.3195L10.7695 30.0244C18.1404 37.3455 17.9186 37.162 19.0283 36.8572C19.6925 36.6747 20.4257 35.9314 20.5401 35.3245C20.7522 34.1997 20.9938 34.4779 12.1723 25.6891L4.01894 17.566V9.49538V1.42461L3.73335 1.00303C3.06683 0.0189235 1.87007 -0.289453 0.99494 0.297312ZM34.0342 0.294313C33.8059 0.448876 33.5008 0.734137 33.3562 0.928184C33.0941 1.28017 33.0934 1.3149 33.0307 15.6098L32.9679 29.9387L26.1859 23.237C18.7907 15.9292 19.1167 16.1966 17.9751 16.5024C17.3553 16.6685 16.6235 17.4509 16.5062 18.0731C16.2982 19.1758 16.0787 18.9234 24.878 27.6918L33.0307 35.8157V42.6986V49.5813L33.3163 50.0029C34.2168 51.3324 35.8636 51.3324 36.764 50.0029L37.0496 49.5813V25.503V1.42461L36.764 1.00303C36.0994 0.0216724 34.8975 -0.290328 34.0342 0.294313ZM59.0282 0.148871C54.6944 0.817103 51.4712 2.42483 48.4035 5.44862C45.7205 8.09331 44.0843 11.0754 43.3302 14.6948C42.9802 16.3746 42.9009 17.406 43.0783 17.9636C43.2013 18.3496 44.8896 20.0975 51.7262 26.9163C57.0047 32.181 60.3818 35.4574 60.6449 35.5691C61.8377 36.0755 63.1762 35.3815 63.4927 34.0924C63.7302 33.1249 63.9653 33.3941 55.2641 24.6753L47.1239 16.5186L47.2868 15.6692C48.0968 11.4438 51.1095 7.53766 55.061 5.58944C56.2314 5.01242 57.7594 4.51612 59.1718 4.25423C60.1968 4.0643 62.8725 4.06655 63.9263 4.25835C65.2702 4.503 67.3168 5.21934 68.3516 5.80723C72.8136 8.34234 75.4571 12.4292 75.8755 17.4393C76.0264 19.2437 76.1464 19.5806 76.8214 20.0924C77.2045 20.383 77.4047 20.4417 77.9984 20.4384C78.5827 20.435 78.7973 20.3709 79.1697 20.0883C79.8548 19.5683 80.0025 19.1826 80 17.9185C79.9953 15.5952 79.2163 12.4231 78.1194 10.2612C76.3603 6.79458 73.2141 3.64585 69.7998 1.93516C68.1993 1.13335 65.9515 0.444878 63.965 0.148122C62.9226 -0.00769079 60.0405 -0.00719139 59.0282 0.148871ZM60.5851 15.4356C59.8441 15.7566 59.3398 16.7481 59.4686 17.6311C59.5482 18.178 59.7735 18.4158 67.699 26.3151L75.8474 34.4369L75.6127 35.499C75.1259 37.7001 74.3593 39.3628 72.9865 41.1944C70.2755 44.8119 66.0791 46.8907 61.4773 46.8955C60.5793 46.8965 59.4772 46.8302 59.0282 46.7481C52.4733 45.5502 47.6509 40.2556 47.0828 33.6333C46.9261 31.8058 46.7907 31.4121 46.1522 30.9277C45.7659 30.6344 45.5569 30.5709 44.9677 30.5676C44.374 30.5642 44.1739 30.6229 43.7907 30.9136C43.0995 31.4375 42.9521 31.8209 42.9546 33.0874C42.9594 35.4742 43.7071 38.5215 44.8322 40.7389C46.9499 44.9126 50.8167 48.3683 55.0464 49.8673C57.2829 50.66 59.1822 50.9938 61.4386 50.9905C66.459 50.9833 70.8979 49.1682 74.4208 45.6824C76.0527 44.0675 77.1186 42.635 78.0475 40.8078C79.3612 38.2242 80.2817 34.3156 79.8763 33.0423C79.7534 32.6565 78.0625 30.9049 71.2284 24.0845C66.3133 19.1795 62.5629 15.5328 62.3291 15.4317C61.824 15.2135 61.0945 15.2151 60.5851 15.4356Z" fill="#1F1515"/>
</svg>
